#!OML:ASF E:\motion texture\Top Level 1\Subject 1\Session 1\male.ASF
:FULLY-SPECIFIED
:DEGREES
396
root -6.0293 17.7421 1.23292 498.158 -81.2557 -491.949
lowerback 26.4809 25.1628 11.6144
upperback 11.6303 40.8542 12.1451
thorax -175.669 122.301 -2.25954
lowerneck 26.34 28.3888 16.6229
upperneck -38.3012 78.3968 -43.7122
head 301.607 115.753 166.045
rclavicle 3.66012e-014 6.86801e-014
rhumerus 58.453 10.5703 118.16
rradius 81.298
rwrist -62.9668
rhand -11.3414 -62.6459
rfingers 7.12502
rthumb 14.6916 92.1054
lclavicle 3.66012e-014 6.86801e-014
lhumerus 117.329 15.11 -73.6484
lradius 90.3464
lwrist 56.1963
lhand -7.52742 52.0903
lfingers 7.12502
lthumb 18.3635 441.244
rfemur -4.73047 0.326195 24.5351
rtibia 41.2193
rfoot -4.10011 -16.0901
rtoes -6.58856
lfemur -29.3319 -1.81641 -8.71842
ltibia 21.4763
lfoot -0.708718 7.41575
ltoes -1.96669
397
root -6.20688 17.7504 1.26314 495.395 -81.855 -489.348
lowerback 26.4475 24.9294 11.354
upperback 11.6817 40.7357 12.0711
thorax -175.591 122.847 -2.19163
lowerneck 26.4278 28.4696 16.5291
upperneck -38.6929 78.387 -44.082
head 300.408 115.205 164.87
rclavicle 1.31446e-014 -1.23495e-014
rhumerus 58.996 10.6198 118.215
rradius 80.4723
rwrist -63.1676
rhand -11.5914 -63.1763
rfingers 7.12502
rthumb 14.4507 92.6532
lclavicle 1.31446e-014 -1.23495e-014
lhumerus 116.186 14.8035 -74.076
lradius 90.8892
lwrist 56.2767
lhand -7.53627 52.1865
lfingers 7.12502
lthumb 18.355 441.341
rfemur -5.24145 0.0745715 24.3352
rtibia 42.5711
rfoot -3.0579 -16.2442
rtoes -5.76355
lfemur -28.9964 -2.22118 -9.37538
ltibia 21.9302
lfoot -0.817248 6.61386
ltoes -1.53027
398
root -6.38375 17.7594 1.29331 492.074 -82.4504 -486.188
lowerback 26.4202 24.688 11.0954
upperback 11.7353 40.6165 11.9988
thorax -175.514 123.391 -2.12588
lowerneck 26.5195 28.5555 16.4355
upperneck -39.1229 78.3813 -44.4918
head 299.149 114.676 163.646
rclavicle -2.25621e-014 -1.19892e-014
rhumerus 59.5743 10.6512 118.28
rradius 79.7197
rwrist -63.3947
rhand -11.835 -63.7084
rfingers 7.12502
rthumb 14.216 93.2019
lclavicle -2.25621e-014 -1.19892e-014
lhumerus 114.958 14.4896 -74.5704
lradius 91.4638
lwrist 56.3283
lhand -7.56137 52.3044
lfingers 7.12502
lthumb 18.3308 441.461
rfemur -5.80222 -0.203955 24.1396
rtibia 43.9157
rfoot -2.06598 -16.3478
rtoes -4.85656
lfemur -28.6234 -2.63685 -10.0281
ltibia 22.3462
lfoot -0.950881 5.83268
ltoes -1.08884
399
root -6.55982 17.769 1.32336 488.085 -83.0315 -482.359
lowerback 26.3985 24.4398 10.8386
upperback 11.7906 40.4972 11.9277
thorax -175.437 123.93 -2.06187
lowerneck 26.6142 28.6464 16.3429
upperneck -39.5853 78.3792 -44.9354
head 297.839 114.17 162.38
rclavicle -3.46708e-014 2.77677e-015
rhumerus 60.1884 10.6644 118.359
rradius 79.0469
rwrist -63.6547
rhand -12.0818 -64.2256
rfingers 7.12502
rthumb 13.9781 93.7357
lclavicle -3.46708e-014 2.77677e-015
lhumerus 113.65 14.1676 -75.1242
lradius 92.0625
lwrist 56.3459
lhand -7.59693 52.4466
lfingers 7.12502
lthumb 18.2966 441.606
rfemur -6.41052 -0.507542 23.9467
rtibia 45.2425
rfoot -1.13512 -16.4009
rtoes -3.90084
lfemur -28.2111 -3.06087 -10.6758
ltibia 22.7197
lfoot -1.10779 5.07557
ltoes -0.643697
400
root -6.73506 17.7792 1.35329 483.308 -83.5833 -477.739
lowerback 26.3797 24.1874 10.5815
upperback 11.8465 40.3779 11.8563
thorax -175.36 124.464 -1.99892
lowerneck 26.7118 28.7427 16.2528
upperneck -40.0746 78.3797 -45.408
head 296.485 113.69 161.079
rclavicle 6.70898e-016 4.48011e-014
rhumerus 60.8389 10.6568 118.446
rradius 78.4562
rwrist -63.93
rhand -12.2973 -64.7385
rfingers 7.12502
rthumb 13.7705 94.2628
lclavicle 6.70898e-016 4.48011e-014
lhumerus 112.268 13.8405 -75.7349
lradius 92.6779
lwrist 56.3288
lhand -7.65118 52.6149
lfingers 7.12502
lthumb 18.2444 441.779
rfemur -7.06669 -0.83101 23.7564
rtibia 46.5437
rfoot -0.276638 -16.4059
rtoes -2.8862
lfemur -27.7612 -3.4872 -11.3156
ltibia 23.048
lfoot -1.28689 4.34544
ltoes -0.200897
401
root -6.90914 17.7899 1.38299 477.604 -84.0919 -472.19
lowerback 26.3666 23.9313 10.326
upperback 11.9044 40.2609 11.7865
thorax -175.283 124.988 -1.93708
lowerneck 26.8105 28.8412 16.1622
upperneck -40.5965 78.3841 -45.914
head 295.089 113.233 159.744
rclavicle -3.71976e-014 8.36386e-014
rhumerus 61.5297 10.626 118.548
rradius 77.9524
rwrist -64.229
rhand -12.5257 -65.2387
rfingers 7.12502
rthumb 13.5504 94.7778
lclavicle -3.71976e-014 8.36386e-014
lhumerus 110.82 13.5074 -76.3953
lradius 93.3013
lwrist 56.2758
lhand -7.71017 52.7988
lfingers 7.12502
lthumb 18.1877 441.968
rfemur -7.76754 -1.16911 23.5674
rtibia 47.8079
rfoot 0.501573 -16.3657
rtoes -1.83096
lfemur -27.2756 -3.91224 -11.9474
ltibia 23.3316
lfoot -1.48551 3.64069
ltoes 0.225448
402
root -7.08211 17.801 1.41241 470.856 -84.5379 -465.592
lowerback 26.3579 23.6733 10.0712
upperback 11.9636 40.1466 11.7177
thorax -175.206 125.501 -1.87598
lowerneck 26.9106 28.9425 16.073
upperneck -41.1445 78.3908 -46.4477
head 293.658 112.804 158.383
rclavicle -4.05769e-014 8.63719e-014
rhumerus 62.2598 10.5701 118.66
rradius 77.5384
rwrist -64.5421
rhand -12.7497 -65.7209
rfingers 7.12502
rthumb 13.3345 95.2742
lclavicle -4.05769e-014 8.63719e-014
lhumerus 109.314 13.1675 -77.1009
lradius 93.9255
lwrist 56.1901
lhand -7.74667 53.0236
lfingers 7.12502
lthumb 18.1526 442.197
rfemur -8.51205 -1.51854 23.3801
rtibia 49.0279
rfoot 1.19197 -16.2855
rtoes -0.745121
lfemur -26.7565 -4.33101 -12.5689
ltibia 23.5702
lfoot -1.70307 2.96196
ltoes 0.63599
403
root -7.25398 17.8125 1.44156 463.05 -84.8998 -457.931
lowerback 26.3542 23.4154 9.81744
upperback 12.0247 40.0367 11.6504
thorax -175.13 126.002 -1.81574
lowerneck 27.0113 29.0462 15.9851
upperneck -41.7183 78.4006 -47.0083
head 292.205 112.404 157.007
rclavicle -2.85753e-014 1.74434e-014
rhumerus 63.0294 10.4862 118.782
rradius 77.2182
rwrist -64.8665
rhand -12.9523 -66.191
rfingers 7.12502
rthumb 13.1392 95.757
lclavicle -2.85753e-014 1.74434e-014
lhumerus 107.757 12.8204 -77.8481
lradius 94.5408
lwrist 56.0727
lhand -7.79395 53.2654
lfingers 7.12502
lthumb 18.1071 442.443
rfemur -9.29513 -1.87425 23.1936
rtibia 50.1921
rfoot 1.79047 -16.1686
rtoes 0.346704
lfemur -26.2028 -4.73933 -13.1782
ltibia 23.7621
lfoot -1.94044 2.30968
ltoes 1.02994
404
root -7.4246 17.8243 1.47039 454.278 -85.1562 -449.3
lowerback 26.3556 23.1586 9.56668
upperback 12.0869 39.9313 11.585
thorax -175.054 126.487 -1.75683
lowerneck 27.1124 29.1514 15.8989
upperneck -42.3165 78.4127 -47.5949
head 290.737 112.034 155.621
rclavicle -1.38056e-013 6.06293e-015
rhumerus 63.8392 10.3721 118.911
rradius 76.9924
rwrist -65.1962
rhand -13.122 -66.6423
rfingers 7.12502
rthumb 12.9756 96.2188
lclavicle -1.38056e-013 6.06293e-015
lhumerus 106.158 12.4679 -78.6321
lradius 95.14
lwrist 55.9306
lhand -7.89538 53.5012
lfingers 7.12502
lthumb 18.0095 442.687
rfemur -10.1151 -2.23313 23.01
rtibia 51.2909
rfoot 2.29886 -16.0226
rtoes 1.42887
lfemur -25.6196 -5.13404 -13.7717
ltibia 23.9106
lfoot -2.19685 1.68154
ltoes 1.41838
405
root -7.59395 17.8363 1.49884 444.84 -85.2915 -439.994
lowerback 26.3608 22.904 9.31872
upperback 12.1498 39.8301 11.521
thorax -174.979 126.958 -1.69891
lowerneck 27.2131 29.2575 15.814
upperneck -42.9358 78.427 -48.2038
head 289.262 111.693 154.235
rclavicle 8.08557e-014 -1.64991e-014
rhumerus 64.6885 10.2259 119.045
rradius 76.8619
rwrist -65.5296
rhand -13.2982 -67.0581
rfingers 7.12502
rthumb 12.8057 96.6453
lclavicle 8.08557e-014 -1.64991e-014
lhumerus 104.521 12.1089 -79.4491
lradius 95.7162
lwrist 55.768
lhand -8.00932 53.7546
lfingers 7.12502
lthumb 17.8999 442.951
rfemur -10.9672 -2.59188 22.8288
rtibia 52.3144
rfoot 2.71279 -15.852
rtoes 2.4817
lfemur -25.0093 -5.51169 -14.3493
ltibia 24.0166
lfoot -2.4715 1.07523
ltoes 1.79399
406
root -7.76202 17.8485 1.52688 435.211 -85.2982 -430.492
lowerback 26.3722 22.6523 9.07648
upperback 12.214 39.7346 11.4603
thorax -174.904 127.409 -1.64285
lowerneck 27.3141 29.365 15.731
upperneck -43.5841 78.4442 -48.8432
head 287.792 111.384 152.862
rclavicle 4.75592e-014 1.82882e-014
rhumerus 65.5769 10.0435 119.181
rradius 76.8281
rwrist -65.8628
rhand -13.4456 -67.4467
rfingers 7.12502
rthumb 12.6636 97.0428
lclavicle 4.75592e-014 1.82882e-014
lhumerus 102.857 11.7412 -80.2946
lradius 96.2605
lwrist 55.5889
lhand -8.13575 54.0251
lfingers 7.12502
lthumb 17.7782 443.232
rfemur -11.847 -2.94704 22.65
rtibia 53.2531
rfoot 3.03191 -15.6657
rtoes 3.50176
lfemur -24.3748 -5.86946 -14.9104
ltibia 24.0834
lfoot -2.76996 0.493425
ltoes 2.1418
407
root -7.92878 17.8606 1.55451 425.917 -85.179 -421.316
lowerback 26.3853 22.4042 8.83888
upperback 12.277 39.6423 11.4003
thorax -174.831 127.842 -1.58781
lowerneck 27.4135 29.4719 15.6497
upperneck -44.2452 78.4624 -49.4964
head 286.334 111.104 151.503
rclavicle -1.14301e-013 -2.47487e-014
rhumerus 66.5021 9.82626 119.317
rradius 76.891
rwrist -66.1933
rhand -13.5799 -67.7845
rfingers 7.12502
rthumb 12.5342 97.3885
lclavicle -1.14301e-013 -2.47487e-014
lhumerus 101.17 11.3667 -81.1665
lradius 96.7649
lwrist 55.3946
lhand -8.26749 54.3126
lfingers 7.12502
lthumb 17.6514 443.531
rfemur -12.7518 -3.29615 22.4743
rtibia 54.0981
rfoot 3.25853 -15.4709
rtoes 4.48416
lfemur -23.721 -6.20386 -15.4542
ltibia 24.1145
lfoot -3.09454 -0.0686935
ltoes 2.45752
408
root -8.09425 17.8727 1.58173 417.437 -84.9493 -412.943
lowerback 26.3987 22.1621 8.60527
upperback 12.3383 39.5536 11.3406
thorax -174.76 128.257 -1.53379
lowerneck 27.5095 29.5764 15.5698
upperneck -44.9043 78.4805 -50.1479
head 284.893 110.848 150.162
rclavicle 4.06515e-014 -1.83876e-014
rhumerus 67.4611 9.57432 119.447
rradius 77.0507
rwrist -66.5148
rhand -13.6837 -68.0843
rfingers 7.12502
rthumb 12.4341 97.6945
lclavicle 4.06515e-014 -1.83876e-014
lhumerus 99.4659 10.9851 -82.0637
lradius 97.2227
lwrist 55.1849
lhand -8.41556 54.6133
lfingers 7.12502
lthumb 17.509 443.845
rfemur -13.6775 -3.63284 22.3028
rtibia 54.842
rfoot 3.39625 -15.2727
rtoes 5.40867
lfemur -23.0476 -6.51112 -15.9787
ltibia 24.1091
lfoot -3.43429 -0.609739
ltoes 2.75263
409
root -8.25849 17.8847 1.60858 409.967 -84.6298 -405.572
lowerback 26.4115 21.9258 8.37831
upperback 12.3964 39.4666 11.281
thorax -174.691 128.654 -1.4813
lowerneck 27.6017 29.6789 15.4906
upperneck -45.5668 78.5002 -50.8026
head 283.486 110.618 148.854
rclavicle -1.06648e-013 -1.98785e-016
rhumerus 68.4501 9.2865 119.568
rradius 77.3067
rwrist -66.822
rhand -13.7571 -68.3387
rfingers 7.12502
rthumb 12.3633 97.9531
lclavicle -1.06648e-013 -1.98785e-016
lhumerus 97.7521 10.5938 -82.9807
lradius 97.6248
lwrist 54.9534
lhand -8.55705 54.9217
lfingers 7.12502
lthumb 17.3728 444.165
rfemur -14.6192 -3.9573 22.1338
rtibia 55.4768
rfoot 3.44828 -15.0777
rtoes 6.26862
lfemur -22.3574 -6.79394 -16.4845
ltibia 24.0685
lfoot -3.78274 -1.12476
ltoes 3.02786
